<svg width="729" height="475" viewBox="0 0 729 475" fill="none" xmlns="http://www.w3.org/2000/svg">
<path d="M711.134 0C716.462 0.000231429 720.904 3.78926 721.916 8.81934C724.14 10.832 725.537 13.7411 725.537 16.9766C725.537 20.2592 725.537 23.5513 725.664 39.2783C725.792 55.0659 726.046 82.9707 726.588 99.2227C727.117 115.072 727.89 118.56 728.725 124.429C729.58 130.443 725.397 136.012 719.383 136.868C713.368 137.724 707.799 133.542 706.943 127.527C706.061 121.323 705.166 116.948 704.6 99.9561C704.046 83.3667 703.792 55.1527 703.665 39.4561C703.665 39.4287 703.664 39.4013 703.664 39.374C701.232 44.1133 698.995 50.3887 695.279 60.4678C690.97 72.1574 685.105 87.5927 675.151 108.491C670.985 117.239 664.091 128.481 656.033 141.205C647.829 154.161 638.242 168.923 628.104 185.406C619.263 199.783 604.292 229.293 570.263 267.393C542.669 298.286 522.318 318.515 494.916 336.877C475.808 349.681 445.413 369.089 405.134 388.205C365.012 407.246 316.68 425.381 286.035 435.195C254.959 445.147 241.989 446.532 231.465 447.984C227.858 448.482 223.108 449.722 216.423 451.648C209.981 453.505 202.005 455.917 192.824 458.329C174.288 463.2 150.39 468.21 119.966 469.968C50.0792 474.006 12.0017 474.316 11 474.316C4.92511 474.316 0.000206154 469.391 0 463.316C0.000197912 457.242 4.9251 452.317 11 452.316C11.0137 452.316 11.1568 452.315 11.4697 452.312C11.7916 452.309 12.2583 452.305 12.8682 452.297C14.088 452.281 15.878 452.254 18.2275 452.209C22.9268 452.119 29.8633 451.956 38.9541 451.668C57.1361 451.092 83.9364 450.013 118.697 448.005C147.303 446.352 169.715 441.655 187.232 437.052C196.079 434.727 203.566 432.459 210.332 430.509C216.855 428.629 223.058 426.937 228.457 426.191C238.26 424.838 249.881 423.673 279.325 414.243C309.201 404.675 356.604 386.885 395.701 368.33C434.641 349.85 464.049 331.079 482.67 318.601C507.761 301.787 526.653 283.193 553.855 252.737C586.224 216.497 599.918 189.243 609.365 173.882C619.598 157.243 629.418 142.114 637.446 129.436C645.621 116.525 651.786 106.387 655.289 99.0312C664.841 78.9752 670.446 64.2282 674.638 52.8584C676.547 47.6792 678.271 42.8645 680.037 38.4443C667.75 46.0879 651.268 56.2889 631.694 66.9727C626.362 69.8833 619.679 67.9194 616.769 62.5869C613.858 57.2546 615.821 50.5728 621.153 47.6621C650.05 31.8895 670.116 18.3761 683.613 10.4375C696.941 2.59852 702.319 1.17999 706.359 0.513672C708.72 0.124362 709.823 2.99721e-05 711.134 0Z" fill="#FD6867"/>
</svg>
